<?xml version="1.0" standalone="no"?>
<!DOCTYPE svg PUBLIC "-//W3C//DTD SVG 20010904//EN"
 "http://www.w3.org/TR/2001/REC-SVG-20010904/DTD/svg10.dtd">
<svg version="1.0" xmlns="http://www.w3.org/2000/svg"
 width="200.000000pt" height="200.000000pt" viewBox="0 0 200.000000 200.000000"
 preserveAspectRatio="xMidYMid meet">
<metadata>
Created by potrace 1.14, written by Peter Selinger 2001-2017
</metadata>
<g transform="translate(0.000000,200.000000) scale(0.100000,-0.100000)"
fill="#000000" stroke="none">
<path d="M848 1761 l-38 -39 0 -90 c0 -69 4 -94 16 -106 18 -18 45 -21 61 -5
11 11 198 7 244 -5 46 -13 59 12 59 117 l0 92 -39 38 -38 37 -114 0 -114 -1
-37 -38z m262 -8 c0 -15 -2 -15 -118 -17 -46 -1 -88 2 -94 5 -27 17 10 26 107
26 81 0 105 -3 105 -14z m-234 -109 c0 -81 -4 -106 -20 -101 -7 2 -11 34 -12
83 0 86 2 97 19 91 8 -2 12 -30 13 -73z m278 -12 c0 -81 -8 -108 -23 -84 -6
10 -8 155 -2 170 0 2 7 2 14 -1 8 -2 12 -28 11 -85z m-66 1 l3 -70 -91 1 -90
0 0 67 c0 77 -3 75 115 73 l60 -2 3 -69z"/>
<path d="M433 1566 c-81 -80 -81 -82 -81 -131 0 -48 3 -53 66 -117 78 -80 111
-89 132 -37 15 35 132 160 154 163 24 3 46 27 46 50 0 13 -25 46 -67 88 -66
63 -70 66 -118 65 -49 0 -51 -1 -132 -81z m117 34 c0 -11 -139 -150 -149 -150
-27 0 -12 23 55 91 70 70 94 85 94 59z m110 -40 c59 -59 72 -80 48 -80 -19 0
-118 102 -118 122 0 10 2 18 5 18 3 0 32 -27 65 -60z m-16 -78 c17 -23 17 -24
-40 -82 -32 -33 -61 -60 -64 -60 -3 0 -28 21 -54 46 l-48 47 63 63 62 63 32
-27 c17 -15 39 -37 49 -50z m-183 -119 c55 -52 73 -83 49 -83 -16 0 -120 110
-120 126 0 22 8 18 71 -43z"/>
<path d="M1318 1582 c-80 -77 -90 -112 -36 -131 39 -14 168 -144 168 -170 0
-19 18 -31 49 -31 10 0 47 31 83 68 66 68 66 68 64 121 -3 52 -4 55 -82 131
-78 77 -80 78 -129 78 -48 -1 -53 -4 -117 -66z m296 -124 c-11 -17 -26 -6 -95
63 -50 49 -69 75 -64 86 4 13 23 0 85 -62 43 -43 77 -82 74 -87z m-194 146 c0
-12 -114 -124 -127 -124 -23 0 -14 16 42 74 47 48 85 70 85 50z m107 -204
c-60 -69 -63 -69 -128 -4 -32 33 -59 61 -59 64 0 3 21 27 46 54 l47 48 63 -63
63 -63 -32 -36z m82 -7 c-32 -39 -109 -113 -119 -113 -22 0 -7 27 42 77 29 29
61 53 71 53 17 0 18 -2 6 -17z"/>
<path d="M894 1490 c-134 -27 -280 -142 -342 -270 -137 -282 18 -621 320 -701
176 -47 349 0 477 128 194 195 201 491 17 690 -120 129 -299 187 -472 153z
m255 -49 c201 -76 324 -255 316 -457 -16 -406 -508 -599 -794 -312 -181 183
-181 471 0 657 55 56 166 116 239 130 67 13 182 4 239 -18z"/>
<path d="M238 1151 l-38 -38 0 -114 0 -113 41 -38 41 -38 87 0 c72 0 91 3 104
18 19 21 22 53 6 69 -11 11 -7 188 5 234 13 46 -12 59 -117 59 l-92 0 -37 -39z
m219 -4 c14 -15 -12 -21 -88 -22 -76 -1 -97 4 -85 24 6 9 163 7 173 -2z m-193
-148 c1 -86 -2 -104 -14 -104 -12 0 -16 19 -18 94 -3 101 1 125 20 119 8 -3
12 -37 12 -109z m172 1 l0 -90 -68 0 -68 0 -1 40 c0 22 0 60 0 85 0 25 0 47 0
50 1 3 31 5 69 5 l67 0 1 -90z m20 -133 c15 -15 -8 -21 -87 -22 -76 -1 -97 4
-85 23 6 11 162 10 172 -1z"/>
<path d="M1525 1170 c-16 -18 -17 -25 -6 -58 13 -38 10 -192 -4 -243 -12 -46
13 -59 117 -59 l90 0 39 39 39 39 0 112 0 112 -39 39 -39 39 -89 0 c-77 0 -92
-3 -108 -20z m190 -30 c0 -12 -16 -15 -82 -14 -45 0 -86 3 -90 8 -15 14 17 22
94 21 62 0 78 -3 78 -15z m52 -138 c1 -63 -2 -104 -9 -108 -18 -11 -23 12 -22
98 2 117 3 120 17 116 8 -3 13 -35 14 -106z m-65 21 c-1 -127 7 -113 -70 -113
l-68 0 0 90 0 91 69 -3 69 -3 0 -62z m13 -163 c0 -12 -16 -15 -78 -15 -81 -1
-113 8 -89 24 8 4 48 8 90 7 61 -1 77 -4 77 -16z"/>
<path d="M418 683 l-67 -68 3 -53 c2 -52 5 -55 79 -129 74 -74 77 -77 129 -79
l53 -3 68 67 c78 77 85 103 35 130 -45 24 -147 125 -166 164 -28 56 -56 50
-134 -29z m102 25 c0 -19 -102 -118 -122 -118 -10 0 -18 2 -18 5 0 3 26 32 58
64 56 58 82 73 82 49z m84 -108 l60 -60 -25 -27 c-13 -15 -35 -38 -49 -50
l-25 -23 -62 62 c-61 60 -62 63 -45 82 22 27 76 76 82 76 3 0 32 -27 64 -60z
m-124 -121 c70 -70 82 -89 57 -89 -17 0 -159 144 -151 153 14 14 25 6 94 -64z
m240 31 c0 -19 -110 -122 -127 -118 -14 3 -5 17 41 66 54 57 86 76 86 52z"/>
<path d="M1462 742 c-7 -5 -14 -19 -17 -31 -5 -26 -117 -138 -164 -163 -49
-27 -41 -53 37 -131 l67 -67 55 4 c53 4 56 6 132 84 l78 79 -3 52 c-3 49 -7
56 -67 116 -62 62 -88 75 -118 57z m94 -77 c34 -34 54 -62 52 -73 -3 -13 -18
-4 -66 42 -57 55 -76 86 -52 86 5 0 35 -25 66 -55z m-42 -51 l48 -47 -63 -63
-63 -63 -36 32 c-69 60 -69 62 -3 128 32 32 60 59 63 59 3 0 27 -21 54 -46z
m100 -73 c5 -8 -145 -161 -158 -161 -21 0 3 38 64 99 69 70 84 80 94 62z
m-255 -75 c34 -34 52 -60 49 -72 -3 -15 -15 -7 -66 44 -34 34 -62 67 -62 72 0
23 29 7 79 -44z"/>
<path d="M827 475 c-13 -13 -17 -36 -17 -108 l0 -92 39 -37 38 -38 113 0 112
0 39 39 39 39 0 89 c0 77 -3 92 -20 108 -18 16 -25 17 -58 6 -38 -13 -192 -10
-243 4 -18 5 -31 2 -42 -10z m45 -32 c3 -10 4 -49 4 -88 -1 -55 -4 -70 -16
-70 -12 0 -15 15 -16 70 -2 76 3 105 16 105 4 0 10 -8 12 -17z m279 5 c1 -7 2
-46 3 -86 2 -69 -7 -99 -24 -73 -6 10 -7 133 -1 164 2 12 21 8 22 -5z m-61
-79 l0 -67 -47 -4 c-27 -1 -67 -2 -90 0 l-43 3 0 67 0 68 90 0 90 0 0 -67z
m13 -108 c5 0 7 -6 5 -13 -3 -8 -37 -13 -106 -15 -94 -3 -122 3 -109 25 4 5
174 8 210 3z"/>
</g>
</svg>
